<?xml version="1.0" standalone="no" ?>
<!DOCTYPE svg PUBLIC "-//W3C//DTD SVG 1.1//EN"
  "http://www.w3.org/Graphics/SVG/1.1/DTD/svg11.dtd">
<svg width="397.691px" height="500px" viewBox="0 0 4.72529 3.75841" version="1.1"
  xmlns="http://www.w3.org/2000/svg">
  <rect x="-1.11663" y="-0.281374" width="-0.170732" height="-0.795113" fill="none" stroke-width="0.0141759" stroke="black"/>
  <rect x="-0.656515" y="-0.783488" width="-0.275893" height="-1.3479" fill="none" stroke-width="0.0141759" stroke="black"/>
  <rect x="-0.81296" y="-0.57449" width="-0.189942" height="-0.272888" fill="none" stroke-width="0.0141759" stroke="black"/>
  <rect x="-0.117114" y="-1.67459" width="-0.0428818" height="-0.31055" fill="none" stroke-width="0.0141759" stroke="black"/>
  <rect x="-0.454025" y="0.0835591" width="0.0190962" height="-1.0727" fill="none" stroke-width="0.0141759" stroke="black"/>
  <rect x="-0.0143531" y="-0.898588" width="-0.407523" height="-0.498848" fill="none" stroke-width="0.0141759" stroke="black"/>
  <rect x="0.336276" y="-1.50915" width="-0.111415" height="-1.13345" fill="none" stroke-width="0.0141759" stroke="black"/>
  <rect x="0.296304" y="-0.542606" width="-0.385632" height="-0.606184" fill="none" stroke-width="0.0141759" stroke="black"/>
  <rect x="0.302154" y="-0.713667" width="-0.120086" height="-0.349537" fill="none" stroke-width="0.0141759" stroke="black"/>
  <rect x="-0.213578" y="-0.152259" width="0.0838114" height="-0.463015" fill="none" stroke-width="0.0141759" stroke="black"/>
  <rect x="-0.113145" y="-0.355973" width="0.245335" height="-0.501919" fill="none" stroke-width="0.0141759" stroke="black"/>
  <rect x="0.32208" y="-0.369561" width="-0.158976" height="-0.33122" fill="none" stroke-width="0.0141759" stroke="black"/>
  <rect x="-0.472931" y="0.120789" width="-0.489378" height="-0.643856" fill="none" stroke-width="0.0141759" stroke="black"/>
  <rect x="-0.664917" y="0.0472321" width="-0.267425" height="-0.310572" fill="none" stroke-width="0.0141759" stroke="black"/>
  <rect x="-1.12891" y="-0.432342" width="-0.0424063" height="0.213932" fill="none" stroke-width="0.0141759" stroke="black"/>
  <rect x="-0.751779" y="0.232387" width="-0.064221" height="-0.669961" fill="none" stroke-width="0.0141759" stroke="black"/>
  <rect x="-0.492992" y="-0.134621" width="-0.107008" height="-0.126998" fill="none" stroke-width="0.0141759" stroke="black"/>
  <rect x="0.34763" y="-0.329264" width="-0.690752" height="-0.124812" fill="none" stroke-width="0.0141759" stroke="black"/>
  <rect x="-0.295067" y="-0.29577" width="0.037005" height="-0.315987" fill="none" stroke-width="0.0141759" stroke="black"/>
  <rect x="-0.582732" y="-0.955125" width="0.248683" height="0.558004" fill="none" stroke-width="0.0141759" stroke="black"/>
  <rect x="-0.408639" y="-0.0811894" width="0.250893" height="-0.0222964" fill="none" stroke-width="0.0141759" stroke="black"/>
  <rect x="-0.743799" y="0.522016" width="0.611702" height="-1.03625" fill="none" stroke-width="0.0141759" stroke="black"/>
  <rect x="-0.480228" y="-0.536555" width="0.474531" height="0.214466" fill="none" stroke-width="0.0141759" stroke="black"/>
  <rect x="-0.853545" y="-0.447429" width="0.903533" height="0.171785" fill="none" stroke-width="0.0141759" stroke="black"/>
  <rect x="-0.78578" y="-0.0848493" width="0.901469" height="0.0478086" fill="none" stroke-width="0.0141759" stroke="black"/>
  <rect x="-1.65753" y="-0.763674" width="0.746966" height="0.887693" fill="none" stroke-width="0.0141759" stroke="black"/>
  <rect x="-0.868051" y="0.297959" width="0.222179" height="-0.1822" fill="none" stroke-width="0.0141759" stroke="black"/>
  <rect x="-0.286964" y="-0.70437" width="-0.216874" height="0.872056" fill="none" stroke-width="0.0141759" stroke="black"/>
  <rect x="-0.701289" y="0.934843" width="-0.118378" height="-0.740845" fill="none" stroke-width="0.0141759" stroke="black"/>
  <rect x="-0.980917" y="0.118456" width="-0.294286" height="0.153148" fill="none" stroke-width="0.0141759" stroke="black"/>
  <rect x="-0.944066" y="-0.0840472" width="0.21868" height="0.537039" fill="none" stroke-width="0.0141759" stroke="black"/>
  <rect x="-0.197715" y="-0.898837" width="0.389253" height="0.865086" fill="none" stroke-width="0.0141759" stroke="black"/>
  <rect x="0.146653" y="0.246099" width="-0.0951" height="-0.0135704" fill="none" stroke-width="0.0141759" stroke="black"/>
  <rect x="-0.259756" y="0.603731" width="0.470166" height="-0.542971" fill="none" stroke-width="0.0141759" stroke="black"/>
  <rect x="0.0787394" y="0.984181" width="-0.385521" height="-0.718574" fill="none" stroke-width="0.0141759" stroke="black"/>
  <rect x="-0.322911" y="0.367179" width="0.325611" height="-0.0355754" fill="none" stroke-width="0.0141759" stroke="black"/>
  <rect x="-0.405351" y="-0.577784" width="-0.0415648" height="0.979435" fill="none" stroke-width="0.0141759" stroke="black"/>
  <rect x="-1.89346" y="1.31612" width="-0.115437" height="-0.613095" fill="none" stroke-width="0.0141759" stroke="black"/>
  <rect x="-0.0448104" y="0.123531" width="-0.651404" height="0.53153" fill="none" stroke-width="0.0141759" stroke="black"/>
  <rect x="-0.62549" y="1.14245" width="-0.489986" height="-0.314485" fill="none" stroke-width="0.0141759" stroke="black"/>
  <rect x="-1.39056" y="0.137057" width="-0.122148" height="0.713193" fill="none" stroke-width="0.0141759" stroke="black"/>
  <rect x="-0.603322" y="1.87933" width="-0.0743596" height="-0.933655" fill="none" stroke-width="0.0141759" stroke="black"/>
  <rect x="-0.724852" y="1.08841" width="-0.509097" height="0.581856" fill="none" stroke-width="0.0141759" stroke="black"/>
  <rect x="-0.10731" y="0.410166" width="0.287041" height="0.103723" fill="none" stroke-width="0.0141759" stroke="black"/>
  <rect x="-0.885659" y="0.355521" width="0.615096" height="0.24142" fill="none" stroke-width="0.0141759" stroke="black"/>
  <rect x="0.104229" y="-0.304316" width="0.00437532" height="1.16383" fill="none" stroke-width="0.0141759" stroke="black"/>
  <rect x="-0.35499" y="0.515163" width="0.00882327" height="0.445064" fill="none" stroke-width="0.0141759" stroke="black"/>
  <rect x="0.100123" y="1.08692" width="0.009064" height="-0.156009" fill="none" stroke-width="0.0141759" stroke="black"/>
  <rect x="-0.205827" y="0.505126" width="0.303478" height="0.54907" fill="none" stroke-width="0.0141759" stroke="black"/>
  <rect x="-0.200129" y="0.754419" width="0.409495" height="0.534759" fill="none" stroke-width="0.0141759" stroke="black"/>
  <rect x="-0.104554" y="-0.66451" width="0.333714" height="-0.503146" fill="none" stroke-width="0.0141759" stroke="black"/>
  <rect x="0.643902" y="-1.50449" width="-0.288444" height="-0.465418" fill="none" stroke-width="0.0141759" stroke="black"/>
  <rect x="1.13503" y="-1.41338" width="-0.608412" height="-0.270831" fill="none" stroke-width="0.0141759" stroke="black"/>
  <rect x="0.162715" y="-0.248387" width="0.228108" height="-0.380728" fill="none" stroke-width="0.0141759" stroke="black"/>
  <rect x="0.581311" y="-0.51668" width="0.072749" height="-0.19121" fill="none" stroke-width="0.0141759" stroke="black"/>
  <rect x="0.836742" y="0.550893" width="-0.12069" height="-1.14921" fill="none" stroke-width="0.0141759" stroke="black"/>
  <rect x="0.342761" y="-1.65478" width="0.530512" height="0.879676" fill="none" stroke-width="0.0141759" stroke="black"/>
  <rect x="0.30483" y="0.453704" width="0.773572" height="-1.0427" fill="none" stroke-width="0.0141759" stroke="black"/>
  <rect x="0.966402" y="-0.758534" width="0.155582" height="5.94638e-005" fill="none" stroke-width="0.0141759" stroke="black"/>
  <rect x="1.14712" y="-1.19892" width="0.147535" height="-1.15193" fill="none" stroke-width="0.0141759" stroke="black"/>
  <rect x="1.09846" y="-0.688084" width="0.121535" height="0.0721048" fill="none" stroke-width="0.0141759" stroke="black"/>
  <rect x="1.3843" y="-0.884869" width="0.0934142" height="-0.137481" fill="none" stroke-width="0.0141759" stroke="black"/>
  <rect x="-0.231055" y="-0.592682" width="0.483436" height="0.6454" fill="none" stroke-width="0.0141759" stroke="black"/>
  <rect x="0.0603861" y="-0.652052" width="0.297814" height="0.431882" fill="none" stroke-width="0.0141759" stroke="black"/>
  <rect x="0.392875" y="0.667178" width="0.230043" height="-0.78014" fill="none" stroke-width="0.0141759" stroke="black"/>
  <rect x="0.344769" y="-0.36848" width="0.374516" height="0.212977" fill="none" stroke-width="0.0141759" stroke="black"/>
  <rect x="0.126006" y="-0.0519986" width="0.685689" height="-0.261502" fill="none" stroke-width="0.0141759" stroke="black"/>
  <rect x="0.596611" y="-0.141484" width="0.219527" height="0.200054" fill="none" stroke-width="0.0141759" stroke="black"/>
  <rect x="0.862312" y="-0.190885" width="0.03487" height="0.258988" fill="none" stroke-width="0.0141759" stroke="black"/>
  <rect x="0.210033" y="0.321631" width="0.707778" height="-0.796731" fill="none" stroke-width="0.0141759" stroke="black"/>
  <rect x="0.743457" y="0.675372" width="0.187984" height="-0.794812" fill="none" stroke-width="0.0141759" stroke="black"/>
  <rect x="1.06796" y="-0.242419" width="-0.111445" height="-0.286983" fill="none" stroke-width="0.0141759" stroke="black"/>
  <rect x="0.310452" y="-0.484159" width="0.65076" height="0.493524" fill="none" stroke-width="0.0141759" stroke="black"/>
  <rect x="1.30384" y="0.0451201" width="0.128743" height="-0.283119" fill="none" stroke-width="0.0141759" stroke="black"/>
  <rect x="1.1815" y="-0.385828" width="0.241874" height="0.391588" fill="none" stroke-width="0.0141759" stroke="black"/>
  <rect x="0.0874856" y="0.195629" width="0.283151" height="-0.101293" fill="none" stroke-width="0.0141759" stroke="black"/>
  <rect x="-0.105806" y="-0.0957839" width="0.397677" height="0.467245" fill="none" stroke-width="0.0141759" stroke="black"/>
  <rect x="0.39631" y="-0.113421" width="-0.00921043" height="0.602608" fill="none" stroke-width="0.0141759" stroke="black"/>
  <rect x="0.0185222" y="0.770722" width="0.221819" height="-0.222207" fill="none" stroke-width="0.0141759" stroke="black"/>
  <rect x="0.385692" y="0.995871" width="0.0959863" height="-0.199094" fill="none" stroke-width="0.0141759" stroke="black"/>
  <rect x="0.220761" y="0.559263" width="0.196617" height="0.287388" fill="none" stroke-width="0.0141759" stroke="black"/>
  <rect x="-0.0689658" y="0.321206" width="0.544676" height="0.896148" fill="none" stroke-width="0.0141759" stroke="black"/>
  <rect x="0.20756" y="0.627975" width="0.0285164" height="0.59211" fill="none" stroke-width="0.0141759" stroke="black"/>
  <rect x="0.456954" y="0.400269" width="-0.105726" height="1.03191" fill="none" stroke-width="0.0141759" stroke="black"/>
  <rect x="0.656293" y="1.09629" width="-0.317868" height="0.429216" fill="none" stroke-width="0.0141759" stroke="black"/>
  <rect x="0.128668" y="0.596308" width="0.143497" height="0.937062" fill="none" stroke-width="0.0141759" stroke="black"/>
  <rect x="0.467597" y="1.29384" width="-0.0566292" height="0.789971" fill="none" stroke-width="0.0141759" stroke="black"/>
  <rect x="0.560664" y="0.322852" width="0.035848" height="-0.244321" fill="none" stroke-width="0.0141759" stroke="black"/>
  <rect x="0.405514" y="-0.170273" width="0.289195" height="0.382607" fill="none" stroke-width="0.0141759" stroke="black"/>
  <rect x="0.473038" y="0.338758" width="0.205867" height="0.183351" fill="none" stroke-width="0.0141759" stroke="black"/>
  <rect x="0.365269" y="0.0284082" width="0.126571" height="0.509219" fill="none" stroke-width="0.0141759" stroke="black"/>
  <rect x="1.07847" y="0.11757" width="-0.595056" height="0.644505" fill="none" stroke-width="0.0141759" stroke="black"/>
  <rect x="0.759753" y="0.786717" width="-0.140638" height="0.722434" fill="none" stroke-width="0.0141759" stroke="black"/>
  <rect x="0.210681" y="-0.458685" width="0.603774" height="0.604649" fill="none" stroke-width="0.0141759" stroke="black"/>
  <rect x="0.697847" y="0.290283" width="0.219825" height="0.464402" fill="none" stroke-width="0.0141759" stroke="black"/>
  <rect x="0.324864" y="1.6071" width="0.601854" height="-1.11365" fill="none" stroke-width="0.0141759" stroke="black"/>
  <rect x="0.930479" y="0.455037" width="0.130468" height="-0.229734" fill="none" stroke-width="0.0141759" stroke="black"/>
  <rect x="0.828062" y="1.08163" width="0.358288" height="-0.276251" fill="none" stroke-width="0.0141759" stroke="black"/>
  <rect x="1.32732" y="0.0918153" width="0.517376" height="0.710355" fill="none" stroke-width="0.0141759" stroke="black"/>
  <rect x="1.97427" y="1.43998" width="0.857555" height="-0.340156" fill="none" stroke-width="0.0141759" stroke="black"/>
</svg>
