<?xml version="1.0" standalone="no" ?>
<!DOCTYPE svg PUBLIC "-//W3C//DTD SVG 1.1//EN"
  "http://www.w3.org/Graphics/SVG/1.1/DTD/svg11.dtd">
<svg width="586.676px" height="500px" viewBox="0 0 0.935025 1.09711" version="1.1"
  xmlns="http://www.w3.org/2000/svg">
  <rect x="0.119998" y="0.107694" width="0.105557" height="0.102592" fill="none" stroke-width="0.00280508" stroke="black"/>
  <rect x="0.0812844" y="0.061718" width="0.189485" height="0.0554243" fill="none" stroke-width="0.00280508" stroke="black"/>
  <rect x="0.0112739" y="0.194485" width="0.285291" height="0.0898049" fill="none" stroke-width="0.00280508" stroke="black"/>
  <rect x="0.0348175" y="0.033851" width="0.230325" height="0.292703" fill="none" stroke-width="0.00280508" stroke="black"/>
  <rect x="0.173644" y="0.158838" width="0.154957" height="0.238692" fill="none" stroke-width="0.00280508" stroke="black"/>
  <rect x="0.0974958" y="0.304989" width="0.284668" height="0.100109" fill="none" stroke-width="0.00280508" stroke="black"/>
  <rect x="0.0988165" y="0.300016" width="0.286444" height="0.030222" fill="none" stroke-width="0.00280508" stroke="black"/>
  <rect x="0.238933" y="0.127434" width="0.162953" height="0.133466" fill="none" stroke-width="0.00280508" stroke="black"/>
  <rect x="0.0601361" y="0.0597415" width="0.375845" height="0.211387" fill="none" stroke-width="0.00280508" stroke="black"/>
  <rect x="0.27369" y="0.12993" width="0.27053" height="0.0811309" fill="none" stroke-width="0.00280508" stroke="black"/>
  <rect x="0.443558" y="0.0119926" width="0.111756" height="0.265027" fill="none" stroke-width="0.00280508" stroke="black"/>
  <rect x="0.313109" y="0.0635446" width="0.224399" height="0.28416" fill="none" stroke-width="0.00280508" stroke="black"/>
  <rect x="0.136449" y="0.408327" width="0.176307" height="0.0511773" fill="none" stroke-width="0.00280508" stroke="black"/>
  <rect x="0.0384885" y="0.130093" width="0.307742" height="0.339113" fill="none" stroke-width="0.00280508" stroke="black"/>
  <rect x="0.351908" y="0.331693" width="0.106032" height="0.0989643" fill="none" stroke-width="0.00280508" stroke="black"/>
  <rect x="0.111716" y="0.13125" width="0.383312" height="0.341744" fill="none" stroke-width="0.00280508" stroke="black"/>
  <rect x="0.312622" y="0.293729" width="0.116301" height="0.203391" fill="none" stroke-width="0.00280508" stroke="black"/>
  <rect x="0.191141" y="0.00561402" width="0.300223" height="0.505405" fill="none" stroke-width="0.00280508" stroke="black"/>
  <rect x="0.189257" y="0.364698" width="0.209113" height="0.195028" fill="none" stroke-width="0.00280508" stroke="black"/>
  <rect x="0.0426216" y="0.202438" width="0.126139" height="0.388903" fill="none" stroke-width="0.00280508" stroke="black"/>
  <rect x="0.0953818" y="0.202805" width="0.133113" height="0.404851" fill="none" stroke-width="0.00280508" stroke="black"/>
  <rect x="0.158733" y="0.111799" width="0.33227" height="0.442151" fill="none" stroke-width="0.00280508" stroke="black"/>
  <rect x="0.089669" y="0.542789" width="0.360438" height="0.0225356" fill="none" stroke-width="0.00280508" stroke="black"/>
  <rect x="0.254193" y="0.374138" width="0.293768" height="0.230629" fill="none" stroke-width="0.00280508" stroke="black"/>
  <rect x="0.391865" y="0.34911" width="0.175987" height="0.248621" fill="none" stroke-width="0.00280508" stroke="black"/>
  <rect x="0.497364" y="0.221885" width="0.101409" height="0.0878651" fill="none" stroke-width="0.00280508" stroke="black"/>
  <rect x="0.391262" y="0.192598" width="0.229426" height="0.132758" fill="none" stroke-width="0.00280508" stroke="black"/>
  <rect x="0.262552" y="0.178521" width="0.367532" height="0.0340278" fill="none" stroke-width="0.00280508" stroke="black"/>
  <rect x="0.367257" y="0.133393" width="0.28508" height="0.231893" fill="none" stroke-width="0.00280508" stroke="black"/>
  <rect x="0.492596" y="0.00814299" width="0.12913" height="0.373708" fill="none" stroke-width="0.00280508" stroke="black"/>
  <rect x="0.396104" y="0.172795" width="0.187023" height="0.230077" fill="none" stroke-width="0.00280508" stroke="black"/>
  <rect x="0.342118" y="0.0230553" width="0.23158" height="0.380564" fill="none" stroke-width="0.00280508" stroke="black"/>
  <rect x="0.418457" y="0.223974" width="0.236063" height="0.252045" fill="none" stroke-width="0.00280508" stroke="black"/>
  <rect x="0.40006" y="0.391884" width="0.301191" height="0.102546" fill="none" stroke-width="0.00280508" stroke="black"/>
  <rect x="0.419688" y="0.0697211" width="0.189231" height="0.460214" fill="none" stroke-width="0.00280508" stroke="black"/>
  <rect x="0.341979" y="0.212428" width="0.277262" height="0.33109" fill="none" stroke-width="0.00280508" stroke="black"/>
  <rect x="0.344595" y="0.0201751" width="0.29596" height="0.581377" fill="none" stroke-width="0.00280508" stroke="black"/>
  <rect x="0.345568" y="0.0498675" width="0.378789" height="0.166631" fill="none" stroke-width="0.00280508" stroke="black"/>
  <rect x="0.537928" y="0.0847583" width="0.210269" height="0.058356" fill="none" stroke-width="0.00280508" stroke="black"/>
  <rect x="0.433233" y="0.0303529" width="0.359915" height="0.219298" fill="none" stroke-width="0.00280508" stroke="black"/>
  <rect x="0.484391" y="0.246838" width="0.27073" height="0.0839836" fill="none" stroke-width="0.00280508" stroke="black"/>
  <rect x="0.578198" y="0.163594" width="0.215032" height="0.286599" fill="none" stroke-width="0.00280508" stroke="black"/>
  <rect x="0.483716" y="0.322214" width="0.311167" height="0.268756" fill="none" stroke-width="0.00280508" stroke="black"/>
  <rect x="0.528662" y="0.149878" width="0.274382" height="0.187931" fill="none" stroke-width="0.00280508" stroke="black"/>
  <rect x="0.586057" y="0.0334288" width="0.281454" height="0.270696" fill="none" stroke-width="0.00280508" stroke="black"/>
  <rect x="0.585313" y="0.00997678" width="0.356741" height="0.138445" fill="none" stroke-width="0.00280508" stroke="black"/>
  <rect x="0.441116" y="0.173086" width="0.388657" height="0.259973" fill="none" stroke-width="0.00280508" stroke="black"/>
  <rect x="0.57365" y="0.13832" width="0.293197" height="0.236922" fill="none" stroke-width="0.00280508" stroke="black"/>
  <rect x="0.560528" y="0.160358" width="0.28419" height="0.407454" fill="none" stroke-width="0.00280508" stroke="black"/>
  <rect x="0.466894" y="0.0842105" width="0.361004" height="0.522052" fill="none" stroke-width="0.00280508" stroke="black"/>
  <rect x="0.24431" y="0.0199334" width="0.12075" height="0.589545" fill="none" stroke-width="0.00280508" stroke="black"/>
  <rect x="0.254313" y="0.371285" width="0.281918" height="0.284921" fill="none" stroke-width="0.00280508" stroke="black"/>
  <rect x="0.393798" y="0.190321" width="0.141455" height="0.467007" fill="none" stroke-width="0.00280508" stroke="black"/>
  <rect x="0.279786" y="0.284819" width="0.173328" height="0.374106" fill="none" stroke-width="0.00280508" stroke="black"/>
  <rect x="0.12623" y="0.214891" width="0.138678" height="0.450412" fill="none" stroke-width="0.00280508" stroke="black"/>
  <rect x="0.149252" y="0.453664" width="0.272847" height="0.237659" fill="none" stroke-width="0.00280508" stroke="black"/>
  <rect x="0.177684" y="0.288536" width="0.135618" height="0.413197" fill="none" stroke-width="0.00280508" stroke="black"/>
  <rect x="0.0115159" y="0.282079" width="0.190472" height="0.429645" fill="none" stroke-width="0.00280508" stroke="black"/>
  <rect x="0.086012" y="0.322424" width="0.383401" height="0.455169" fill="none" stroke-width="0.00280508" stroke="black"/>
  <rect x="0.0709647" y="0.43238" width="0.291976" height="0.349212" fill="none" stroke-width="0.00280508" stroke="black"/>
  <rect x="0.012131" y="0.220945" width="0.349786" height="0.574293" fill="none" stroke-width="0.00280508" stroke="black"/>
  <rect x="0.169684" y="0.587752" width="0.136059" height="0.215667" fill="none" stroke-width="0.00280508" stroke="black"/>
  <rect x="0.418579" y="0.0595682" width="0.118068" height="0.581885" fill="none" stroke-width="0.00280508" stroke="black"/>
  <rect x="0.488279" y="0.247092" width="0.218952" height="0.405263" fill="none" stroke-width="0.00280508" stroke="black"/>
  <rect x="0.437994" y="0.45" width="0.151489" height="0.203642" fill="none" stroke-width="0.00280508" stroke="black"/>
  <rect x="0.435153" y="0.395801" width="0.250397" height="0.319924" fill="none" stroke-width="0.00280508" stroke="black"/>
  <rect x="0.276888" y="0.312286" width="0.334159" height="0.407328" fill="none" stroke-width="0.00280508" stroke="black"/>
  <rect x="0.340827" y="0.235671" width="0.377679" height="0.501647" fill="none" stroke-width="0.00280508" stroke="black"/>
  <rect x="0.261519" y="0.590425" width="0.367577" height="0.156205" fill="none" stroke-width="0.00280508" stroke="black"/>
  <rect x="0.40669" y="0.341771" width="0.181002" height="0.422242" fill="none" stroke-width="0.00280508" stroke="black"/>
  <rect x="0.476219" y="0.278071" width="0.167177" height="0.524744" fill="none" stroke-width="0.00280508" stroke="black"/>
  <rect x="0.587171" y="0.284165" width="0.339748" height="0.480546" fill="none" stroke-width="0.00280508" stroke="black"/>
  <rect x="0.475035" y="0.487301" width="0.258668" height="0.287986" fill="none" stroke-width="0.00280508" stroke="black"/>
  <rect x="0.428545" y="0.28155" width="0.399654" height="0.504684" fill="none" stroke-width="0.00280508" stroke="black"/>
  <rect x="0.566249" y="0.541559" width="0.304546" height="0.26997" fill="none" stroke-width="0.00280508" stroke="black"/>
  <rect x="0.339961" y="0.519062" width="0.179617" height="0.305381" fill="none" stroke-width="0.00280508" stroke="black"/>
  <rect x="0.422649" y="0.357993" width="0.109552" height="0.470187" fill="none" stroke-width="0.00280508" stroke="black"/>
  <rect x="0.268275" y="0.269519" width="0.353923" height="0.587143" fill="none" stroke-width="0.00280508" stroke="black"/>
  <rect x="0.0790787" y="0.388305" width="0.314898" height="0.504832" fill="none" stroke-width="0.00280508" stroke="black"/>
  <rect x="0.215705" y="0.367838" width="0.23111" height="0.541409" fill="none" stroke-width="0.00280508" stroke="black"/>
  <rect x="0.207211" y="0.566472" width="0.378424" height="0.364952" fill="none" stroke-width="0.00280508" stroke="black"/>
  <rect x="0.585876" y="0.526916" width="0.240595" height="0.305775" fill="none" stroke-width="0.00280508" stroke="black"/>
  <rect x="0.44373" y="0.271265" width="0.247138" height="0.582142" fill="none" stroke-width="0.00280508" stroke="black"/>
  <rect x="0.329288" y="0.355707" width="0.314557" height="0.506559" fill="none" stroke-width="0.00280508" stroke="black"/>
  <rect x="0.355225" y="0.537623" width="0.271676" height="0.383353" fill="none" stroke-width="0.00280508" stroke="black"/>
  <rect x="0.438073" y="0.578694" width="0.193584" height="0.332545" fill="none" stroke-width="0.00280508" stroke="black"/>
  <rect x="0.529041" y="0.57925" width="0.307759" height="0.353079" fill="none" stroke-width="0.00280508" stroke="black"/>
  <rect x="0.133849" y="0.534933" width="0.385825" height="0.408033" fill="none" stroke-width="0.00280508" stroke="black"/>
  <rect x="0.117949" y="0.569743" width="0.210618" height="0.397516" fill="none" stroke-width="0.00280508" stroke="black"/>
  <rect x="0.125326" y="0.381035" width="0.148393" height="0.59718" fill="none" stroke-width="0.00280508" stroke="black"/>
  <rect x="0.593024" y="0.57537" width="0.130613" height="0.391674" fill="none" stroke-width="0.00280508" stroke="black"/>
  <rect x="0.32138" y="0.518569" width="0.276973" height="0.450507" fill="none" stroke-width="0.00280508" stroke="black"/>
  <rect x="0.370809" y="0.449502" width="0.228631" height="0.527071" fill="none" stroke-width="0.00280508" stroke="black"/>
  <rect x="0.074292" y="0.467431" width="0.354402" height="0.51896" fill="none" stroke-width="0.00280508" stroke="black"/>
  <rect x="0.502767" y="0.404196" width="0.12883" height="0.583167" fill="none" stroke-width="0.00280508" stroke="black"/>
  <rect x="0.346337" y="0.419459" width="0.171368" height="0.595438" fill="none" stroke-width="0.00280508" stroke="black"/>
  <rect x="0.00702845" y="0.458947" width="0.207993" height="0.566474" fill="none" stroke-width="0.00280508" stroke="black"/>
  <rect x="0.361658" y="0.514767" width="0.263465" height="0.508351" fill="none" stroke-width="0.00280508" stroke="black"/>
  <rect x="0.19079" y="0.528286" width="0.224279" height="0.550941" fill="none" stroke-width="0.00280508" stroke="black"/>
  <rect x="0.313949" y="0.550034" width="0.128182" height="0.552695" fill="none" stroke-width="0.00280508" stroke="black"/>
</svg>
